<?xml version="1.0" standalone="no"?>
<!DOCTYPE svg PUBLIC "-//W3C//DTD SVG 20010904//EN"
 "http://www.w3.org/TR/2001/REC-SVG-20010904/DTD/svg10.dtd">
<svg version="1.0" xmlns="http://www.w3.org/2000/svg"
 width="1100.000000pt" height="1100.000000pt" viewBox="0 0 1100.000000 1100.000000"
 preserveAspectRatio="xMidYMid meet">
<metadata>
Created by potrace 1.14, written by Peter Selinger 2001-2017
</metadata>
<g transform="translate(0.000000,1100.000000) scale(0.100000,-0.100000)"
fill="#000000" stroke="none">
<path d="M4698 8865 c-2 -1 -26 -5 -54 -9 -130 -15 -320 -99 -433 -191 -204
-166 -385 -432 -530 -780 -23 -55 -46 -109 -51 -120 -18 -40 -78 -212 -100
-285 -13 -41 -29 -94 -36 -117 -17 -54 -58 -213 -83 -328 -23 -106 -25 -113
-52 -270 -12 -66 -24 -123 -28 -127 -4 -4 -29 1 -56 11 -50 19 -93 28 -174 37
-32 3 -57 15 -90 42 -94 78 -191 107 -356 106 -175 0 -245 -11 -410 -66 -332
-111 -646 -375 -849 -715 -77 -129 -181 -378 -201 -481 -2 -13 -7 -32 -10 -42
-6 -20 -9 -34 -20 -100 -4 -25 -10 -54 -12 -65 -10 -38 -11 -382 -2 -431 5
-27 12 -62 15 -79 24 -138 91 -295 179 -420 127 -180 343 -326 530 -359 17 -3
53 -10 80 -15 81 -15 250 -10 350 11 94 21 224 72 287 113 l37 24 73 -44 c282
-172 636 -147 950 69 l66 45 60 -44 c88 -64 225 -130 317 -152 105 -24 175
-31 305 -28 201 4 363 41 524 122 38 18 71 31 74 28 4 -4 -89 -110 -119 -135
-20 -18 -143 -182 -200 -267 -112 -171 -223 -419 -243 -548 -4 -21 -8 -40 -10
-44 -17 -28 -27 -288 -14 -361 5 -25 11 -58 14 -75 7 -47 34 -125 63 -185 117
-242 334 -405 612 -460 70 -13 230 -19 284 -9 22 4 60 10 85 14 59 8 177 48
243 82 145 73 278 187 407 349 131 165 303 531 414 884 45 145 141 508 152
578 3 20 8 40 10 43 2 4 6 24 9 45 9 58 9 58 72 100 32 22 92 63 134 92 l77
53 88 -71 c132 -106 320 -193 469 -217 17 -3 50 -9 75 -13 25 -5 108 -7 185
-6 149 3 247 20 375 63 77 26 225 98 248 120 7 7 17 13 22 13 5 0 15 6 22 13
7 7 33 27 58 45 25 18 74 61 109 95 293 285 453 688 452 1141 -1 391 -124 718
-360 956 -226 228 -490 335 -821 333 -82 -1 -158 -7 -210 -18 -14 -2 -38 -7
-55 -11 -61 -12 -192 -58 -260 -92 -131 -65 -238 -143 -349 -254 -32 -33 -59
-58 -60 -56 -1 2 -11 20 -21 41 -29 56 -116 140 -183 175 -68 36 -152 60 -234
66 -40 3 -64 11 -80 26 -41 38 -112 78 -178 101 -51 17 -91 22 -187 24 -226 3
-440 -50 -641 -160 -34 -19 -64 -35 -66 -35 -3 0 9 34 25 76 16 42 31 84 33
93 1 9 14 54 29 101 30 96 55 191 63 235 2 17 7 37 9 45 2 8 7 30 10 49 3 19
7 37 9 40 2 3 7 30 11 60 4 30 9 63 11 75 12 64 19 182 19 341 0 252 -19 383
-82 559 -105 293 -326 493 -598 541 -62 11 -218 18 -227 10z"/>
<path d="M8305 8328 c-76 -16 -145 -86 -159 -160 -7 -38 -19 -488 -20 -723 -1
-228 3 -244 83 -300 38 -27 51 -30 116 -30 65 0 78 3 116 30 25 17 53 49 66
75 26 53 27 61 48 845 2 100 -15 161 -57 202 -60 56 -122 76 -193 61z"/>
<path d="M9526 7805 c-32 -11 -69 -35 -86 -56 -3 -3 -22 -26 -42 -50 -20 -24
-105 -127 -189 -229 -83 -102 -163 -199 -178 -216 -135 -158 -161 -201 -161
-267 0 -158 164 -258 306 -184 36 19 77 65 373 426 45 55 94 114 101 121 33
33 123 155 135 183 42 101 -12 228 -114 269 -40 16 -104 17 -145 3z"/>
<path d="M10215 6609 c-44 -10 -96 -20 -115 -23 -19 -3 -55 -9 -80 -15 -25 -5
-61 -12 -80 -15 -19 -3 -46 -8 -60 -11 -80 -16 -128 -25 -155 -30 -16 -3 -41
-7 -55 -10 -13 -2 -42 -7 -64 -11 -22 -3 -43 -7 -46 -9 -3 -2 -22 -6 -44 -9
-114 -18 -187 -98 -188 -205 0 -88 46 -156 130 -194 50 -21 91 -20 231 9 42 9
87 18 101 21 81 15 188 34 205 37 22 4 66 13 105 21 14 3 41 8 60 11 230 38
284 57 330 112 80 98 52 250 -59 311 -54 30 -111 32 -216 10z"/>
</g>
</svg>
